<svg width="7" height="14" viewBox="0 0 7 14" fill="none" xmlns="http://www.w3.org/2000/svg">
<rect width="7" height="14" fill="#1E1E1E"/>
<g id="Landing" clip-path="url(#clip0_0_1)">
<rect width="1728" height="5407" transform="translate(-1556 -131)" fill="white"/>
<g id="Navbar / 3 /">
<rect width="1728" height="72" transform="translate(-1556 -29)" fill="white"/>
<g id="Container">
<g id="Column">
<g id="Button/Primary">
<rect x="-102" y="-14" width="130" height="42" rx="6" fill="#4CAF4F"/>
<rect x="-102" y="-14" width="130" height="42" rx="6" stroke="#4CAF4F" stroke-width="2"/>
<path id="Vector" fill-rule="evenodd" clip-rule="evenodd" d="M6.83813 6.58949C7.05395 6.81623 7.05395 7.18379 6.83813 7.41053L1.2039 13.3299C0.988082 13.5567 0.638231 13.5567 0.422411 13.3299L0.161865 13.0562C-0.053955 12.8295 -0.053955 12.4619 0.161865 12.2351L5.14481 7.00001L0.161864 1.76484C-0.0539555 1.5381 -0.0539555 1.17054 0.161864 0.943792L0.42241 0.670058C0.63823 0.443314 0.988081 0.443314 1.2039 0.670058L6.83813 6.58949Z" fill="#F2F2F2"/>
</g>
</g>
</g>
</g>
</g>
<defs>
<clipPath id="clip0_0_1">
<rect width="1728" height="5407" fill="white" transform="translate(-1556 -131)"/>
</clipPath>
</defs>
</svg>
